<?xml version="1.0" encoding="UTF-8"?>
<svg version="1.1" xmlns="http://www.w3.org/2000/svg" width="1024" height="1024">
<path d="M0 0 C337.92 0 675.84 0 1024 0 C1024 337.92 1024 675.84 1024 1024 C686.08 1024 348.16 1024 0 1024 C0 686.08 0 348.16 0 0 Z " fill="#0D0B1C" transform="translate(0,0)"/>
<path d="M0 0 C14.08314146 -0.04694314 28.16627059 -0.08196387 42.24947453 -0.10362434 C48.79012341 -0.11402461 55.33071942 -0.12811466 61.87133789 -0.15087891 C68.19317069 -0.17274191 74.51495289 -0.18459683 80.8368206 -0.18975449 C83.23872104 -0.19342621 85.64061897 -0.20059559 88.04249763 -0.21146011 C100.52624715 -0.26564005 112.68545484 -0.22196066 125 2 C126.17139526 2.20151672 126.17139526 2.20151672 127.36645508 2.40710449 C147.86708523 6.2532774 168.27954419 18.09448456 180.37890625 35.29296875 C194.50453908 56.21277099 199.51528047 79.59209344 195.57226562 104.7265625 C194.50128661 109.67934279 192.87523725 114.29899201 191 119 C190.60425781 120.09054687 190.20851563 121.18109375 189.80078125 122.3046875 C186.02276822 132.17019661 180.55573755 140.7055835 173.3828125 148.44140625 C171.90796882 149.96816957 171.90796882 149.96816957 171 152 C171.83917969 152.185625 171.83917969 152.185625 172.6953125 152.375 C191.47731455 157.20638316 207.68759264 170.85440538 218 187 C224.88929209 198.68529927 229.53176054 211.359981 230 225 C230.03996094 226.09054687 230.07992188 227.18109375 230.12109375 228.3046875 C230.55468674 251.61668694 222.68205407 273.52311844 206.53417969 290.48632812 C199.118365 297.80301353 190.3801996 303.5249191 181 308 C180.07960938 308.43957031 179.15921875 308.87914062 178.2109375 309.33203125 C163.66274786 315.82185709 148.83070386 318.15788278 133.00978088 318.12025452 C131.69706315 318.12110894 130.38434543 318.12196337 129.03184837 318.12284368 C125.3991491 318.12507451 121.76647944 318.12108671 118.13378394 318.11606562 C114.21226163 318.11174101 110.29074094 318.11320897 106.36921692 318.1139679 C99.5785387 318.11449185 92.78787009 318.11135841 85.99719429 318.10573006 C76.17905697 318.09759774 66.36092429 318.09499806 56.54278397 318.09374207 C40.61291129 318.09155427 24.68304373 318.08490156 8.75317383 318.07543945 C-6.71980768 318.06625829 -22.1927878 318.0591809 -37.66577148 318.05493164 C-38.619771 318.05466892 -39.57377053 318.05440619 -40.55667912 318.05413551 C-45.34268747 318.05283046 -50.12869584 318.05156675 -54.9147042 318.05032361 C-94.60980639 318.03995948 -134.30490286 318.02234856 -174 318 C-174 317.34 -174 316.68 -174 316 C-172.27398104 314.66494934 -170.47692615 313.42151352 -168.65625 312.21875 C-168.10070435 311.84939331 -167.54515869 311.48003662 -166.97277832 311.0994873 C-165.15306446 309.89262062 -163.32676648 308.69615928 -161.5 307.5 C-160.24063116 306.66835364 -158.98151722 305.83632116 -157.72265625 305.00390625 C-150.95772938 300.54131739 -144.15000902 296.15747153 -137.24072266 291.92138672 C-126.94371927 285.55916465 -116.95590402 278.69058311 -106.90576172 271.94775391 C-105.94686035 271.30499512 -104.98795898 270.66223633 -104 270 C-103.14047163 269.30997643 -102.28094326 268.61995285 -101.39536858 267.90901947 C-96.98987879 265.43206724 -93.73117803 265.44704152 -88.76834106 265.50793457 C-87.84753718 265.50325558 -86.9267333 265.49857659 -85.97802627 265.49375582 C-82.89668601 265.4828351 -79.81616476 265.50030673 -76.73486328 265.51757812 C-74.52351134 265.51539188 -72.31216056 265.51139457 -70.10081482 265.50572205 C-65.33886085 265.49715562 -60.57713224 265.50094368 -55.81518936 265.5141449 C-48.27433155 265.53449155 -40.73370052 265.5244979 -33.19284058 265.5098877 C-22.60901503 265.49220524 -12.02524142 265.4855841 -1.44140625 265.49072266 C-0.43448688 265.49120361 -0.43448688 265.49120361 0.59277429 265.49169427 C6.0332857 265.49440425 11.47379662 265.49783207 16.91430759 265.50129986 C21.65543669 265.50429319 26.39656582 265.50700249 31.13769531 265.50927734 C32.13883312 265.50976561 32.13883312 265.50976561 33.16019593 265.51026374 C44.32953021 265.51522357 55.49880886 265.50429203 66.66812527 265.48270559 C74.15193137 265.46938271 81.63539596 265.47522175 89.11918139 265.49607086 C93.79513754 265.50510748 98.47096443 265.49753655 103.14690971 265.48565865 C105.30102548 265.48354196 107.45516113 265.4881656 109.60924339 265.5003643 C128.84553706 265.60307668 146.17473787 263.94547006 160.91796875 250.3125 C167.42728247 243.08264311 170.39640452 234.96945623 170.2109375 225.26953125 C169.09178794 213.22831103 163.47735703 205.46987865 154.4609375 197.81640625 C141.03953459 187.91013268 123.94504501 186.40791573 107.84355736 186.48357964 C105.0981127 186.49642048 102.35364236 186.48473727 99.60823059 186.46754456 C94.78443396 186.4411195 89.96088511 186.43523969 85.13702393 186.43664551 C77.37284392 186.43889483 69.60896463 186.42482157 61.84490395 186.38105965 C59.14197904 186.37122657 56.43953296 186.37992528 53.73661804 186.38975525 C52.09027793 186.38361589 50.44394046 186.37670579 48.79760742 186.36889648 C48.04806793 186.37661575 47.29852844 186.38433502 46.52627563 186.39228821 C41.48726541 186.34278018 41.48726541 186.34278018 39.01264954 184.60194397 C38 183 38 183 38 181 C37.41863281 180.7215625 36.83726562 180.443125 36.23828125 180.15625 C34.10862547 179.05611368 32.17889206 177.83029857 30.1875 176.5 C23.51375514 172.3212279 16.70064563 171.58878176 9 171 C8.34253896 169.65144038 7.69968025 168.29575969 7.0625 166.9375 C6.70285156 166.18339844 6.34320312 165.42929687 5.97265625 164.65234375 C4.80264242 161.4618241 4.44277228 158.3612791 4 155 C4.83033249 154.99857498 5.66066498 154.99714996 6.51615906 154.99568176 C14.44188947 154.97765806 22.3670758 154.93548389 30.29254436 154.86790943 C34.36461561 154.83399535 38.43632593 154.80858611 42.50854492 154.80444336 C70.35415147 154.76624815 97.54134988 153.64837343 120 135 C120.98419922 134.18595703 120.98419922 134.18595703 121.98828125 133.35546875 C131.08710466 125.06363633 137.47090851 112.18411414 138.37890625 99.921875 C138.89658244 87.73307886 137.05141096 76.42203339 128.83984375 66.92578125 C128.23269531 66.29027344 127.62554688 65.65476562 127 65 C126.19755859 64.15501953 126.19755859 64.15501953 125.37890625 63.29296875 C117.77001726 56.08550795 106.89338422 52.04139811 96.48352051 51.97888184 C92.9924348 52.10837299 89.50647792 52.27246488 86.01817131 52.4591713 C81.19383342 52.69195743 76.36409062 52.78086717 71.53575802 52.89532661 C67.31752091 53.00331376 63.11291053 53.16134045 58.90161133 53.4296875 C32.33468156 55.06492752 32.33468156 55.06492752 25.39771271 49.77908707 C18.99713172 43.4131756 15.61613939 34.80628604 12.43081665 26.52632141 C10.27355408 21.20963657 7.41463628 16.36632322 4.5 11.4375 C3.61018468 9.85533036 2.72392902 8.27114437 1.84375 6.68359375 C1.30524414 5.71764282 1.30524414 5.71764282 0.75585938 4.73217773 C0 3 0 3 0 0 Z " fill="#37BAF4" transform="translate(540,353)"/>
<path d="M0 0 C3.72559585 0.62093264 4.44904591 2.42212998 6.625 5.4375 C7.72696578 7.26301752 8.78517009 9.11546865 9.8046875 10.98828125 C10.39652832 12.0669043 10.98836914 13.14552734 11.59814453 14.25683594 C12.22575684 15.40958008 12.85336914 16.56232422 13.5 17.75 C14.84516584 20.20131633 16.19516123 22.64994532 17.546875 25.09765625 C17.88820465 25.71607391 18.2295343 26.33449158 18.58120728 26.97164917 C21.87978268 32.9303881 25.29884983 38.81592372 28.75 44.6875 C33.25571624 52.35874811 37.70005851 60.05882479 42.0625 67.8125 C46.65023929 75.95917473 51.27174257 84.08522459 55.9375 92.1875 C56.54972412 93.25363525 57.16194824 94.31977051 57.79272461 95.41821289 C61.18090009 101.29359822 64.63378945 107.12196851 68.16796875 112.91015625 C69.28911014 114.75790495 70.40941325 116.60615994 71.52963257 118.45446777 C72.6045067 120.21640728 73.69508067 121.96792776 74.78637695 123.71972656 C75.43437256 124.78803711 76.08236816 125.85634766 76.75 126.95703125 C77.62011719 128.36625854 77.62011719 128.36625854 78.5078125 129.80395508 C79.82591714 132.91112177 79.40598222 134.2366733 78.625 137.4375 C70.88388556 137.56428098 63.14303884 137.65184412 55.40112305 137.7121582 C52.76755773 137.73730157 50.13406218 137.77142084 47.50073242 137.81469727 C43.71515691 137.8753521 39.93050402 137.9037127 36.14453125 137.92578125 C34.3786541 137.96449089 34.3786541 137.96449089 32.57710266 138.00398254 C24.43132643 138.00677723 24.43132643 138.00677723 20.55566406 135.27050781 C18.6236909 132.43557906 16.83879901 129.64420914 15.21484375 126.62109375 C14.31862305 124.98043945 14.31862305 124.98043945 13.40429688 123.30664062 C12.79650391 122.17419922 12.18871094 121.04175781 11.5625 119.875 C10.34880509 117.62026436 9.12897722 115.36881671 7.90234375 113.12109375 C7.36859131 112.12650146 6.83483887 111.13190918 6.28491211 110.10717773 C4.64541887 107.47034017 2.90676152 105.5281062 0.625 103.4375 C0.19268066 104.25202637 -0.23963867 105.06655273 -0.68505859 105.90576172 C-15.27381002 133.37446262 -15.27381002 133.37446262 -21.72070312 144.87939453 C-25.11971544 150.95208915 -28.44076874 157.06547065 -31.75 163.1875 C-35.9657405 170.98655817 -40.18982238 178.78078247 -44.4375 186.5625 C-44.92919678 187.46339355 -45.42089355 188.36428711 -45.92749023 189.29248047 C-47.9027029 192.91073011 -49.87861079 196.52859989 -51.85449219 200.14648438 C-62.07082646 218.85510442 -72.24780653 237.58480256 -82.33309937 256.36444092 C-83.27937641 258.12584365 -84.22718497 259.88642333 -85.17504883 261.64697266 C-89.03728591 268.84882519 -92.7621487 276.10736535 -96.375 283.4375 C-95.3226416 282.72339966 -95.3226416 282.72339966 -94.24902344 281.99487305 C-93.25418945 281.31980713 -92.25935547 280.64474121 -91.234375 279.94921875 C-90.68871887 279.57894562 -90.14306274 279.20867249 -89.58087158 278.82717896 C-86.497989 276.7351959 -83.41505398 274.64329018 -80.33203125 272.55151367 C-74.41684903 268.53805863 -68.50192247 264.52423124 -62.58892822 260.5075531 C-60.11158169 258.82473828 -57.63398454 257.14229264 -55.15637207 255.45986938 C-53.98787211 254.66624948 -52.8194923 253.87245264 -51.65124512 253.07846069 C-45.88460866 249.15929299 -40.10961916 245.25483561 -34.30078125 241.3984375 C-28.33264537 237.42736567 -22.44037946 233.35312895 -16.5625 229.25 C-15.57830078 228.56486328 -14.59410156 227.87972656 -13.58007812 227.17382812 C-11.68672754 225.85445102 -9.79748137 224.52915746 -7.91308594 223.19702148 C-6.34801243 222.11203834 -4.76082889 221.05730203 -3.14160156 220.05493164 C-0.03962693 218.09241779 1.46262668 217.10357978 2.3515625 213.45703125 C2.31804687 212.39871094 2.28453125 211.34039062 2.25 210.25 C2.48007721 201.76590297 5.1804438 195.78064766 10.9375 189.5625 C17.45576996 183.51491474 24.79780647 181.04802254 33.58203125 181.1640625 C42.49684182 181.96513662 49.71436 185.77630254 55.625 192.4375 C59.65018037 197.98843453 61.625 201.43070448 61.625 208.4375 C98.255 208.4375 134.885 208.4375 172.625 208.4375 C162.02975643 219.03274357 150.0568491 222.75032917 135.23046875 222.82470703 C132.65674872 222.81547545 130.0846863 222.7855736 127.51135254 222.73996353 C124.74389268 222.69417743 121.97777876 222.67967058 119.20996094 222.67355347 C111.35434289 222.65284239 103.49980018 222.59347261 95.64501953 222.47558594 C90.80975373 222.40519241 85.97627355 222.38349517 81.14053345 222.39229965 C79.30962386 222.38601872 77.47867647 222.36126563 75.64828491 222.31726456 C65.70690696 221.71388111 65.70690696 221.71388111 57.05712891 225.6293335 C55.16834261 228.23754086 55.16834261 228.23754086 53.89990234 230.99411011 C51.85957981 234.90445155 48.51489252 236.60696234 44.625 238.4375 C43.87863281 238.79972656 43.13226563 239.16195312 42.36328125 239.53515625 C34.77258943 242.03651119 25.03431578 241.66731422 17.875 238.125 C15.640625 236.82421875 15.640625 236.82421875 13.625 235.4375 C12.87734375 234.92832031 12.1296875 234.41914063 11.359375 233.89453125 C10.78703125 233.41371094 10.2146875 232.93289063 9.625 232.4375 C9.625 231.7775 9.625 231.1175 9.625 230.4375 C8.96757812 230.87578125 8.31015625 231.3140625 7.6328125 231.765625 C6.68148437 232.39984375 5.73015625 233.0340625 4.75 233.6875 C4.21246094 234.04610107 3.67492187 234.40470215 3.12109375 234.77416992 C0.01799332 236.84392047 -3.0870478 238.91066824 -6.1953125 240.97265625 C-16.24529736 247.64698184 -26.23694645 254.40522249 -36.21408081 261.18771362 C-44.13044322 266.56868857 -52.06689134 271.91691578 -60.04272461 277.20947266 C-66.3175743 281.38093446 -72.53741238 285.63106089 -78.74633789 289.89990234 C-82.54896634 292.51282809 -86.3581642 295.11586215 -90.18359375 297.6953125 C-90.89185303 298.17371582 -91.6001123 298.65211914 -92.32983398 299.14501953 C-98.18548152 302.84560423 -104.5403907 304.35580568 -111.47265625 303.0390625 C-116.62954673 301.11231221 -119.95099217 297.28551567 -122.375 292.4375 C-124.13525192 282.9648041 -120.16618744 276.00883923 -115.77050781 268.01269531 C-114.18646525 265.08958808 -112.66471172 262.13850966 -111.1484375 259.1796875 C-105.27205374 247.71411789 -99.31142964 236.30011631 -93.06225586 225.03271484 C-90.43508683 220.28101839 -87.88096441 215.50288493 -85.42578125 210.66047668 C-84.03613509 207.92254968 -82.62956816 205.19344464 -81.22283936 202.46426392 C-80.541743 201.13096048 -79.86883765 199.79343547 -79.20489502 198.45150757 C-75.21901113 190.40284945 -71.6328736 184.54431929 -63.375 180.4375 C-56.23858561 176.37953887 -52.22396236 170.48563342 -49.5 162.8125 C-46.58451122 151.3283186 -47.61390851 141.68152612 -53.30078125 131.484375 C-57.06033467 125.96186716 -61.35335905 122.2680718 -67.375 119.4375 C-66.76964378 115.38101306 -65.45259099 112.34681148 -63.49609375 108.75390625 C-62.90900635 107.66924072 -62.32191895 106.5845752 -61.71704102 105.46704102 C-61.08854248 104.32291748 -60.46004395 103.17879395 -59.8125 102 C-59.16228018 100.80612535 -58.5124611 99.61203235 -57.86303711 98.41772461 C-54.18695554 91.67208806 -50.44511644 84.9696386 -46.59765625 78.3203125 C-38.18753225 63.7160017 -30.16517719 48.87909906 -22.03057861 34.11956787 C-19.14819969 28.89065766 -16.26256824 23.66354633 -13.375 18.4375 C-12.86582031 17.51582031 -12.35664063 16.59414063 -11.83203125 15.64453125 C-10.55874862 13.34406264 -9.28073206 11.04632727 -8 8.75 C-7.4733374 7.79734253 -7.4733374 7.79734253 -6.93603516 6.82543945 C-3.46927252 0.63907652 -3.46927252 0.63907652 0 0 Z " fill="#9E72F2" transform="translate(467.375,266.5625)"/>
<path d="M0 0 C5.8110045 3.72781421 9.0014636 8.46241482 11 15 C11.8637668 21.60363651 12.4105606 28.53731922 9 34.5 C4.28591047 40.61233642 -1.52657391 45.77108345 -9 48 C-12.02042854 48.21297894 -14.97915656 48.1849496 -18 48 C-18.39239868 49.04063599 -18.39239868 49.04063599 -18.79272461 50.10229492 C-20.1267093 53.30412794 -21.68157546 56.30377099 -23.31640625 59.36328125 C-23.64456329 59.97921143 -23.97272034 60.5951416 -24.31082153 61.22973633 C-25.02063261 62.56120971 -25.73163187 63.89205023 -26.44369507 65.22232056 C-27.58240512 67.34968725 -28.71797745 69.47870263 -29.8527832 71.6081543 C-31.44067114 74.58708046 -33.02981323 77.56533169 -34.62011719 80.54296875 C-43.4800307 97.13312302 -52.3354446 113.72628492 -61.0140686 130.41220093 C-61.9120091 132.13849368 -62.81181249 133.86381704 -63.71166992 135.58911133 C-64.24896729 136.62575928 -64.78626465 137.66240723 -65.33984375 138.73046875 C-65.80769287 139.63176514 -66.27554199 140.53306152 -66.75756836 141.46166992 C-71.16647282 150.46921162 -71.30257767 159.57840167 -68.5625 169.25 C-65.30413062 177.81322339 -59.58470026 183.99939647 -51.4375 188.125 C-49.96845631 188.77343633 -48.49265094 189.40792551 -47 190 C-48.36232713 194.46540561 -50.13745505 198.40476084 -52.34375 202.515625 C-52.66916779 203.12461639 -52.99458557 203.73360779 -53.3298645 204.36105347 C-54.38191128 206.32657928 -55.44078322 208.28833028 -56.5 210.25 C-57.2286343 211.60775916 -57.95698569 212.96567018 -58.68505859 214.32373047 C-62.99284993 222.34524697 -67.3675276 230.32702983 -71.82739258 238.26513672 C-74.5674983 243.15956896 -77.09380858 248.13449501 -79.5546875 253.17578125 C-81.7135559 257.3943268 -84.13987583 261.44442937 -86.58203125 265.50390625 C-88.10902784 268.00436179 -88.10902784 268.00436179 -89 271 C-93.78734509 275.75407728 -98.61440907 275.45477313 -105.13265991 275.45318604 C-106.4712591 275.43276442 -107.80985161 275.41190052 -109.1484375 275.390625 C-110.52990904 275.3831563 -111.91139124 275.37746634 -113.2928772 275.37347412 C-116.91316438 275.35826689 -120.5328005 275.31902917 -124.15283203 275.2746582 C-127.85310053 275.23359831 -131.55347516 275.21544037 -135.25390625 275.1953125 C-142.50289964 275.15252867 -149.75135828 275.08433879 -157 275 C-155.70755897 271.02034243 -154.30271837 267.42544418 -152.3046875 263.74609375 C-151.76199219 262.74191406 -151.21929687 261.73773437 -150.66015625 260.703125 C-150.07105469 259.62546875 -149.48195312 258.5478125 -148.875 257.4375 C-148.25753906 256.29925781 -147.64007813 255.16101563 -147.00390625 253.98828125 C-141.71154947 244.24213474 -136.34305566 234.53754961 -130.97094727 224.83520508 C-126.52364089 216.79738209 -122.14803989 208.72382731 -117.8125 200.625 C-112.96315985 191.570714 -107.97999222 182.60519383 -102.89379883 173.68212891 C-98.19982568 165.41988336 -93.70430319 157.05769749 -89.22387695 148.67822266 C-85.47497036 141.68599643 -81.62577055 134.76207512 -77.6875 127.875 C-72.04708306 118.00078862 -66.7094322 107.98147964 -61.40536499 97.92446899 C-56.23264847 88.12247309 -50.9193553 78.42000983 -45.41918945 68.79663086 C-40.7575759 60.62817015 -36.33518751 52.34551601 -32 44 C-32.40557129 43.53601807 -32.81114258 43.07203613 -33.22900391 42.59399414 C-33.76444824 41.97645264 -34.29989258 41.35891113 -34.8515625 40.72265625 C-35.38088379 40.11429932 -35.91020508 39.50594238 -36.45556641 38.87915039 C-41.7714445 32.41119059 -42.65519449 26.69087862 -42.37890625 18.33984375 C-41.46859336 10.31595178 -37.15589594 5.00324876 -31 0 C-21.78868265 -6.87805415 -9.61108652 -5.29483494 0 0 Z " fill="#7548E7" transform="translate(397,396)"/>
<path d="M0 0 C6.17485938 4.07773732 10.0347322 9.5372034 11.6015625 16.78125 C12.25485804 22.3114727 12.07841799 26.75446889 10 32 C9.63068359 32.98613281 9.63068359 32.98613281 9.25390625 33.9921875 C6.50042195 40.47817273 2.09927717 44.10417373 -4.23828125 47.03515625 C-12.72581825 50.18683234 -19.74077609 49.55285051 -28 46 C-33.33170123 43.17733464 -37.02008556 39.21242363 -40 34 C-40.36285184 32.33950988 -40.69982306 30.67295627 -41 29 C-60.88637015 31.02120952 -80.5581757 33.16978318 -100 38 C-100.6815918 38.16467773 -101.36318359 38.32935547 -102.06542969 38.49902344 C-113.84883679 41.41864186 -123.21666108 47.54088647 -132.8515625 54.71875 C-136.66629287 57.482773 -140.57195466 60.08816968 -144.5 62.6875 C-151.03326509 67.0148713 -157.5341478 71.38493686 -164 75.8125 C-164.75216797 76.32707764 -165.50433594 76.84165527 -166.27929688 77.37182617 C-171.87867337 81.21124033 -177.44268817 85.10002639 -183 89 C-184.51423755 90.06131972 -186.02855873 91.12252015 -187.54296875 92.18359375 C-188.29586182 92.71122314 -189.04875488 93.23885254 -189.82446289 93.7824707 C-193.25553115 96.18553008 -196.68894904 98.5852265 -200.12207031 100.98535156 C-203.18549079 103.12984985 -206.24504887 105.27979764 -209.3046875 107.4296875 C-211.39051494 108.89078214 -213.47645027 110.35172276 -215.5625 111.8125 C-216.55596436 112.51238037 -217.54942871 113.21226074 -218.57299805 113.93334961 C-219.49894775 114.58053955 -220.42489746 115.22772949 -221.37890625 115.89453125 C-222.1994751 116.47050049 -223.02004395 117.04646973 -223.86547852 117.63989258 C-226 119 -226 119 -229 120 C-225.03344722 105.87062265 -216.66614508 92.37283072 -204 85 C-201.48158546 83.31907326 -198.99137396 81.60012397 -196.5 79.87939453 C-193.6463077 77.90905872 -190.78029475 75.95800738 -187.91015625 74.01171875 C-182.14349052 70.09838605 -176.38303223 66.1760225 -170.625 62.25 C-169.70509277 61.62295166 -168.78518555 60.99590332 -167.83740234 60.34985352 C-163.13353962 57.14213784 -158.43311171 53.92960341 -153.74243164 50.70263672 C-152.46757868 49.8256411 -151.19203751 48.94964497 -149.91577148 48.07470703 C-146.32113411 45.60836722 -142.7442249 43.1190572 -139.1796875 40.609375 C-120.06806287 27.21720573 -101.55454617 21.17904368 -78.54223633 18.05932617 C-75.80216483 17.68609221 -73.06634192 17.28877325 -70.33007812 16.88867188 C-60.47622791 15.48783208 -50.97093351 14.59581531 -41 15 C-40.86851562 14.39929688 -40.73703125 13.79859375 -40.6015625 13.1796875 C-38.54853883 5.74080954 -32.16877838 0.86398728 -25.8125 -2.875 C-16.69248902 -5.56615078 -8.31280297 -4.52073722 0 0 Z " fill="#468AEC" transform="translate(565,539)"/>
<path d="M0 0 C14.08314146 -0.04694314 28.16627059 -0.08196387 42.24947453 -0.10362434 C48.79012341 -0.11402461 55.33071942 -0.12811466 61.87133789 -0.15087891 C68.19317069 -0.17274191 74.51495289 -0.18459683 80.8368206 -0.18975449 C83.23872104 -0.19342621 85.64061897 -0.20059559 88.04249763 -0.21146011 C103.61882214 -0.27906194 118.59819329 -0.00708938 133.75 4 C134.75546875 4.2475 134.75546875 4.2475 135.78125 4.5 C138.98975656 5.32137768 141.21264279 6.14176186 144 8 C139.342337 7.55214779 135.01882563 6.78480529 130.5 5.5625 C115.12298083 1.65291585 99.73682687 1.7012858 83.9765625 1.734375 C81.6949357 1.7330251 79.41330918 1.73108186 77.13168335 1.72857666 C72.38658873 1.72564908 67.64157008 1.72985183 62.89648438 1.73925781 C56.80555106 1.75074259 50.71479229 1.74402143 44.62386513 1.73211288 C39.9297248 1.72490771 35.23562638 1.72717443 30.54148483 1.73236847 C28.29352167 1.73370399 26.04555473 1.73206067 23.79759598 1.72740936 C20.67436753 1.7223564 17.55142934 1.73003282 14.42822266 1.74121094 C13.49742386 1.73716248 12.56662506 1.73311401 11.60762024 1.72894287 C10.7613356 1.73458252 9.91505096 1.74022217 9.04312134 1.74603271 C8.3061886 1.74678677 7.56925587 1.74754082 6.80999184 1.74831772 C4.74844974 1.84956297 4.74844974 1.84956297 3 4 C3.66 5.98 4.32 7.96 5 10 C2.66063182 7.87330165 1.19346152 5.93775144 0 3 C0 2.01 0 1.02 0 0 Z " fill="#928BE4" transform="translate(540,353)"/>
<path d="M0 0 C0.66 0.33 1.32 0.66 2 1 C1.67 1.66 1.34 2.32 1 3 C2.19419052 2.89403 2.19419052 2.89403 3.4125061 2.78591919 C15.84197836 1.81200116 28.24957591 1.85463757 40.7109375 1.8671875 C43.09258026 1.86651216 45.47422295 1.86554023 47.85586548 1.86428833 C52.82644309 1.86282161 57.79700263 1.86493236 62.76757812 1.86962891 C69.09354789 1.87531928 75.41947514 1.87204497 81.74544334 1.86605644 C86.65807405 1.86241768 91.57069493 1.86360465 96.48332596 1.86618423 C98.81378815 1.86684469 101.14425127 1.86605644 103.47471237 1.86370468 C116.35489287 1.85355732 129.15302069 2.03181505 142 3 C142 3.33 142 3.66 142 4 C94.15 4 46.3 4 -3 4 C-3 3.34 -3 2.68 -3 2 C-2.01 1.34 -1.02 0.68 0 0 Z " fill="#1988EC" transform="translate(369,667)"/>
<path d="M0 0 C0.66 0.99 1.32 1.98 2 3 C1.01 4.485 1.01 4.485 0 6 C19.8 6 39.6 6 60 6 C59.67 6.66 59.34 7.32 59 8 C38.54 8 18.08 8 -3 8 C-1 2 -1 2 0 0 Z " fill="#362FD6" transform="translate(243,663)"/>
<path d="M0 0 C0.66 0.33 1.32 0.66 2 1 C1.67 1.66 1.34 2.32 1 3 C2.26855835 2.8928064 2.26855835 2.8928064 3.56274414 2.78344727 C14.53178586 1.94564106 25.44105075 1.88367052 36.4375 1.9375 C38.24804562 1.94253065 40.05859261 1.94709076 41.86914062 1.95117188 C46.24612846 1.96204063 50.62304848 1.97921675 55 2 C51.63352075 4.2443195 50.54377354 4.2450516 46.6105957 4.22705078 C45.50968094 4.22689972 44.40876617 4.22674866 43.27449036 4.22659302 C41.49312935 4.21110916 41.49312935 4.21110916 39.67578125 4.1953125 C38.45924362 4.1924826 37.24270599 4.18965271 35.98930359 4.18673706 C32.09693642 4.17552603 28.20479784 4.15041948 24.3125 4.125 C21.67643561 4.11497141 19.04036762 4.10584535 16.40429688 4.09765625 C9.93611968 4.07558366 3.46807617 4.04209688 -3 4 C-3 3.34 -3 2.68 -3 2 C-2.01 1.34 -1.02 0.68 0 0 Z " fill="#265BE5" transform="translate(369,667)"/>
<path d="M0 0 C0.66 0.66 1.32 1.32 2 2 C0.02 4.97 0.02 4.97 -2 8 C-1.01 8.33 -0.02 8.66 1 9 C-3.75 13 -3.75 13 -6 13 C-4.58707905 8.1725201 -2.57025846 4.2837641 0 0 Z " fill="#3A3BCC" transform="translate(342,646)"/>
<path d="M0 0 C-3 2 -3 2 -5.6875 3.25 C-9.80588704 5.42575165 -13.34335033 8.13222145 -17 11 C-14.8470426 6.18147629 -11.35493894 3.4985975 -6.9375 0.6875 C-4.54538743 -0.16131414 -2.51871051 -0.13992836 0 0 Z " fill="#B367DF" transform="translate(377,393)"/>
<path d="M0 0 C0.66 0.99 1.32 1.98 2 3 C1.01 4.485 1.01 4.485 0 6 C4.29 6 8.58 6 13 6 C13 6.33 13 6.66 13 7 C7.63904667 8.12862175 2.44693314 8.09688221 -3 8 C-1.125 2.25 -1.125 2.25 0 0 Z " fill="#3D29CE" transform="translate(243,663)"/>
<path d="M0 0 C0.66 0.33 1.32 0.66 2 1 C-2.80286553 4.74249262 -7.5418096 8.2709048 -13 11 C-13.66 10.67 -14.32 10.34 -15 10 C-10.05 6.7 -5.1 3.4 0 0 Z " fill="#3454CE" transform="translate(418,635)"/>
<path d="M0 0 C0.66 0.33 1.32 0.66 2 1 C2.3690205 10.41002278 2.3690205 10.41002278 0 15 C-0.33 15 -0.66 15 -1 15 C-0.67 10.05 -0.34 5.1 0 0 Z " fill="#0EEAF0" transform="translate(711,575)"/>
<path d="M0 0 C2.64 0 5.28 0 8 0 C5.42215154 2.64752004 3.08351902 4.94432065 0 7 C0 6.01 0 5.02 0 4 C0.66 4 1.32 4 2 4 C2 3.01 2 2.02 2 1 C1.34 0.67 0.68 0.34 0 0 Z " fill="#41B6E8" transform="translate(632,475)"/>
<path d="M0 0 C0.66 0.33 1.32 0.66 2 1 C1.67 1.66 1.34 2.32 1 3 C4.3 2.67 7.6 2.34 11 2 C10.67 2.66 10.34 3.32 10 4 C5.71 4 1.42 4 -3 4 C-3 3.34 -3 2.68 -3 2 C-2.01 1.34 -1.02 0.68 0 0 Z " fill="#2D40D2" transform="translate(369,667)"/>
<path d="M0 0 C0.33 0.99 0.66 1.98 1 3 C-1.31 5.31 -3.62 7.62 -6 10 C-6.99 9.67 -7.98 9.34 -9 9 C-8.2575 8.443125 -7.515 7.88625 -6.75 7.3125 C-4.08292005 5.06972822 -2.08443768 2.77925025 0 0 Z " fill="#0A2535" transform="translate(751,637)"/>
<path d="M0 0 C0.66 0.33 1.32 0.66 2 1 C-1.3 3.97 -4.6 6.94 -8 10 C-8.33 9.34 -8.66 8.68 -9 8 C-6.14723863 5.06799526 -3.34920216 2.35684596 0 0 Z " fill="#3E42D5" transform="translate(358,626)"/>
<path d="M0 0 C4.05281712 1.22527029 7.44360764 2.69880494 11 5 C10.67 5.66 10.34 6.32 10 7 C6.66666667 5.33333333 3.33333333 3.66666667 0 2 C0 1.34 0 0.68 0 0 Z " fill="#24CBDF" transform="translate(719,508)"/>
<path d="M0 0 C0.66 0.33 1.32 0.66 2 1 C0.35 4.3 -1.3 7.6 -3 11 C-4 7 -4 7 -3.22265625 5.078125 C-1.61132812 2.5390625 -1.61132812 2.5390625 0 0 Z " fill="#9560DD" transform="translate(353,462)"/>
<path d="M0 0 C1.65 0 3.3 0 5 0 C4.01 1.485 4.01 1.485 3 3 C3.80404463 6.1628485 3.80404463 6.1628485 5 9 C1.9083091 6.47043472 1.09068668 3.77545388 0 0 Z " fill="#A779EB" transform="translate(540,354)"/>
<path d="M0 0 C0.33 0.99 0.66 1.98 1 3 C-0.62339805 4.70884005 -2.29319053 6.37446717 -4 8 C-4.66 8 -5.32 8 -6 8 C-6 6 -6 6 -3.5625 3.4375 C-2.716875 2.633125 -1.87125 1.82875 -1 1 C-0.67 0.67 -0.34 0.34 0 0 Z " fill="#9E62E6" transform="translate(402,431)"/>
</svg>
